<svg version="1.1" id="Layer_1" xmlns:x="ns_extend;" xmlns:i="ns_ai;" xmlns:graph="ns_graphs;" xmlns="http://www.w3.org/2000/svg" xmlns:xlink="http://www.w3.org/1999/xlink" x="0px" y="0px" viewBox="0 0 185.3 129.9" style="enable-background:new 0 0 185.3 129.9;" xml:space="preserve">
 <style type="text/css">
  .st0{clip-path:url(#SVGID_2_);}
	.st1{fill:#2A3375;}
	.st2{clip-path:url(#SVGID_4_);}
	.st3{fill:#FDD100;}
	.st4{clip-path:url(#SVGID_6_);}
	.st5{fill:#FFFFFF;}
	.st6{clip-path:url(#SVGID_8_);}
 </style>
 <metadata>
  <sfw xmlns="ns_sfw;">
   <slices>
   </slices>
   <sliceSourceBounds bottomLeftOrigin="true" height="155.9" width="211.3" x="77" y="180.1">
   </sliceSourceBounds>
  </sfw>
 </metadata>
 <g>
  <g>
   <g>
    <defs>
     <path id="SVGID_1_" d="M92.5,1.9C42.4,2,1.9,28.9,2.1,61.7v3.5c0.1,34.8,35.6,62.9,90.8,62.6c55.5-0.1,90.5-28.5,90.5-63.2
					c-0.1-1.2,0-1.9,0-3.5c-0.2-32.6-40.6-59.2-90.5-59.2L92.5,1.9L92.5,1.9z">
     </path>
    </defs>
    <clipPath id="SVGID_2_">
     <use href="#SVGID_1_" style="overflow:visible;">
     </use>
    </clipPath>
    <g class="st0">
     <rect x="-13" y="-13" class="st1" width="211.3" height="155.9">
     </rect>
    </g>
   </g>
  </g>
  <g>
   <g>
    <defs>
     <path id="SVGID_3_" d="M92.5,5.1C44.8,5.2,6.2,30.6,6.3,61.8s38.8,56.4,86.5,56.2s86.3-25.5,86.2-56.7S140.4,5.1,92.9,5.1
					L92.5,5.1L92.5,5.1z">
     </path>
    </defs>
    <clipPath id="SVGID_4_">
     <use xlink:href="#SVGID_3_" style="overflow:visible;">
     </use>
    </clipPath>
    <g class="st2">
     <rect x="-8.7" y="-9.9" class="st3" width="202.7" height="142.9">
     </rect>
    </g>
   </g>
  </g>
  <g>
   <g>
    <defs>
     <path id="SVGID_5_" d="M51.4,68c-3.4,0.1-6,3-5.9,6.4c0.1,3.2,2.7,5.7,5.9,5.9c1.6,0,3.1-0.7,4.2-1.8c0.1,0,0.1,0.1,0,0.2l0,0
					c-0.3,1.5-0.7,7,5,9.2c2,0.8,4.3,0.4,5.9-1c0.5-0.4,0.6-0.2,0.5,0.3c-0.2,1.4,0.1,4.5,4.3,6.1c2.2,1,4.8,0.5,6.4-1.2
					c0.6-0.5,0.7-0.4,0.8,0.4c0.1,4.2,3.6,7.5,7.8,7.4s7.5-3.6,7.4-7.8l0,0c-0.1-4.2-3.5-7.6-7.7-7.6c-1.7,0-3.6,1-3.9,0.9
					c0-0.4,0.1-0.8,0.3-1.2c0.2-0.4,2.4-7.3-3.1-9.6c-4.3-1.8-6.9,0.3-7.7,1.1c-0.3,0.3-0.4,0.2-0.4-0.1c-0.1-2.6-1.8-4.9-4.3-5.7
					c-3.6-1.1-7.4,0.3-9.5,3.4c-0.3-3-2.9-5.3-5.9-5.3L51.4,68L51.4,68z M6.1,54.8c1.6,0.5,4.1,1.2,5.2,1.4
					c24.8,5.5,32.6,11.1,33.9,12.3c1.5-1.8,3.8-2.8,6.1-2.8c2.7,0,5.2,1.3,6.7,3.5c1.7-1.4,3.8-2.1,5.9-2.1c1.2,0,2.4,0.2,3.6,0.6
					c2.3,0.6,4.1,2.3,5,4.5c1.1-0.5,2.3-0.7,3.5-0.7c1.4,0,2.8,0.3,4.1,0.9c4.6,1.9,5.3,6.5,4.9,9.9c0.3,0,0.6,0,0.9,0
					c5.4,0,9.8,4.4,9.8,9.8c0,1.6-0.4,3.2-1.2,4.7c1.5,0.8,5.2,2.7,8.5,2.3c2.6-0.3,3.7-1.3,4-1.8s0.5-0.8,0.3-1l-7-7.8
					c0,0-1.1-1.1-0.8-1.5c0.4-0.4,1.1,0.2,1.6,0.6c3.5,3,7.9,7.5,7.9,7.5s0.4,0.7,2,0.9c1.9,0.3,3.9-0.1,5.6-1.3
					c0.4-0.4,0.9-0.8,1.2-1.2l-0.1,0.1c1.8-2.3-0.2-4.6-0.2-4.6l-8.2-9.2c0,0-1.1-1.1-0.8-1.5c0.4-0.4,1.1,0.2,1.6,0.6
					c2.6,2.1,6.3,5.8,9.7,9.2c0.7,0.5,3.8,2.4,7.8-0.3c2.4-1.6,3-3.6,2.9-5.2c-0.2-1.3-0.8-2.5-1.7-3.4L117.6,68c0,0-1.1-1-0.8-1.5
					c0.4-0.5,1.1,0.2,1.6,0.6c3.5,3,13.2,11.8,13.2,11.8c2.3,1.5,5.3,1.4,7.6-0.2c1.4-0.8,2.4-2.3,2.5-4s-0.6-3.4-1.9-4.6
					c-0.3-0.3-28.3-24.7-34.6-29.5c-3.7-2.7-5.7-3.4-7.9-3.7c-1.3-0.1-2.5,0-3.8,0.3c-2.9,0.8-6.8,3.4-10.2,6.1
					c-3.6,2.9-6.8,5.5-9.9,6.2c-4,0.9-8.8-0.2-11-1.7c-0.8-0.5-1.4-1.2-1.8-2c-0.8-1.9,0.7-3.4,0.9-3.7l7.7-8.4
					c0.9-0.9,1.8-1.8,2.7-2.7c-2.4,0.4-4.7,0.9-7,1.6c-2.6,0.9-5.4,1.4-8.2,1.5c-2.8-0.3-5.6-0.7-8.4-1.3c-7.7-2-15.1-4.6-22.3-7.9
					C15.4,33.2,8.1,43.5,6.1,54.8 M96,23.5c-13.1,0.4-18.8,6-24.7,12.1l-7.6,8.3c0,0.1-0.9,1-0.4,1.7c1.3,1.8,5.6,2.8,9.9,1.8
					c2.5-0.6,5.8-3.2,9-5.8c3.5-2.8,6.8-5.5,10.3-6.6c2.4-0.9,5.1-1,7.5-0.2c2.5,0.9,4.8,2.3,6.8,4c6,4.5,30,25.5,34.2,29
					c12.3-5.4,25.2-9.6,38.3-12.5c-1.8-10.8-8.4-20.6-18.3-28.6c-13.8,5.9-30.7,9-47.2,0.9c-0.1,0-8.6-4-17.2-4L96,23.5">
     </path>
    </defs>
    <clipPath id="SVGID_6_">
     <use xlink:href="#SVGID_5_" style="overflow:visible;">
     </use>
    </clipPath>
    <g class="st4">
     <rect x="-8.9" y="8.5" class="st5" width="203.2" height="106.3">
     </rect>
    </g>
   </g>
  </g>
  <g>
   <g>
    <defs>
     <path id="SVGID_7_" d="M46,74.4c-0.1-3,2.3-5.6,5.3-5.6c2.9-0.1,5.3,2.1,5.6,4.9l0.2,1.5l0.8-1.2c1.5-2.2,3.9-3.5,6.5-3.6
					c0.8,0,1.6,0.1,2.4,0.3c2.3,0.7,3.8,2.8,3.9,5.2c0.1,0.8,0.6,0.8,0.7,0.8c0.2,0,0.5-0.1,0.7-0.3c1-1.1,2.5-1.7,4-1.8
					c1,0,2.1,0.3,3,0.7c5.2,2.2,2.9,8.9,2.9,9c-0.5,1.1-0.5,1.6-0.1,1.9l0.2,0.1h0.2c0.3-0.1,0.7-0.2,1-0.3c0.9-0.4,1.9-0.6,2.8-0.6
					c3.9,0,7,3.1,7,7s-3.1,7-7,7c-3.8,0-7-3-7.2-6.8c0-0.3,0-1.2-0.8-1.2c-0.3,0-0.6,0.2-0.8,0.5c-0.9,1-2.1,1.6-3.5,1.6
					c-0.8,0-1.6-0.2-2.3-0.5c-4.1-1.7-4.1-4.4-3.9-5.5c0.1-0.3,0.1-0.6-0.1-0.8l-0.3-0.2H67c-0.2,0-0.5,0.1-0.6,0.3
					c-1,0.8-2.2,1.3-3.5,1.3c-0.6,0-1.3-0.1-1.9-0.4c-5.3-2.1-4.9-7.1-4.6-8.7c0-0.3,0-0.6-0.2-0.7L55.8,78l-0.4,0.4
					c-1,1-2.4,1.6-3.8,1.5l0,0C48.5,79.8,46.1,77.4,46,74.4 M96.8,20.6H96c-10.9,0.3-17,4.2-21.1,7.5c-3.6,0.2-7.1,0.9-10.5,1.9
					c-2.4,0.8-4.9,1.3-7.4,1.4c-0.5,0-1.2,0-1.8,0h-1.1c-2.6-0.1-16-3.3-26.6-7.3c-1.1,0.8-2.2,1.6-3.2,2.4
					c11.1,4.5,24.7,8,28.9,8.2l3.7,0.2c2.9-0.2,5.7-0.7,8.4-1.6c1.7-0.5,3.5-1,5.3-1.3c-0.5,0.5-1,1-1.5,1.5l-7.7,8.3
					c-0.6,0.6-2,2.3-1.1,4.3c0.5,0.9,1.1,1.7,2,2.2c2.5,1.4,5.3,2.1,8.2,2.1c1.1,0,2.2-0.1,3.3-0.3c3.2-0.7,6.6-3.5,10.2-6.3
					c2.8-2.3,6.9-5.2,10-6.1c0.9-0.2,1.9-0.4,2.8-0.4c0.3,0,0.5,0,0.8,0.1c2.1,0.3,4.1,1,7.6,3.6c6.3,4.8,34.4,29.2,34.6,29.4
					c1.1,1.1,1.7,2.6,1.7,4.1c-0.1,1.5-0.9,2.8-2.2,3.6c-1.1,0.7-2.4,1.1-3.7,1.2c-1.1,0-2.3-0.3-3.2-0.9
					c-0.1-0.1-9.7-8.9-13.3-11.8c-0.5-0.4-1-0.7-1.6-0.9c-0.3,0-0.6,0.1-0.8,0.4c-0.6,0.7,0.1,1.6,0.8,2.3l11.2,11.2
					c0.8,0.8,1.4,1.9,1.6,3c0.1,1.9-0.8,3.4-2.7,4.7c-1.2,0.9-2.6,1.3-4,1.3c-1.1,0-2.3-0.4-3.2-1l-1.6-1.6c-3-2.9-6-5.9-8.2-7.8
					c-0.5-0.5-1.1-0.8-1.7-0.8c-0.3,0-0.5,0.1-0.7,0.3c-0.3,0.3-0.5,0.8,0.2,1.6c0.2,0.2,0.4,0.5,0.6,0.7l8.2,9.2
					c1,1.1,1.1,2.7,0.2,3.9l-0.3,0.4l-0.7,0.8c-1.2,0.9-2.6,1.3-4,1.3c-0.4,0-0.8,0-1.1-0.1c-0.6-0.1-1.1-0.3-1.6-0.6l-0.1-0.1
					c-0.5-0.5-4.6-4.7-8-7.5c-0.4-0.4-1-0.7-1.6-0.8c-0.3,0-0.6,0.1-0.8,0.3c-0.7,0.8,0.3,1.9,0.8,2.3l7,7.7c0,0.1-0.1,0.2-0.3,0.5
					s-1.1,1.1-3.6,1.6c-0.3,0-0.7,0.1-1,0.1c-2.4-0.1-4.7-0.8-6.8-2c0.7-1.4,1-2.9,1-4.5c0-5.7-4.5-10.3-10.2-10.4H86h-0.4
					c0.2-2.6-0.2-7.6-5.3-9.8c-1.4-0.6-2.9-0.9-4.4-1c-1.1,0-2.2,0.2-3.2,0.6c-1-2.1-2.9-3.6-5.1-4.3c-1.2-0.4-2.4-0.6-3.7-0.6
					c-2.1,0-4.1,0.7-5.8,1.9c-1.7-2.1-4.2-3.3-6.8-3.3c-2.3,0-4.6,1-6.2,2.6c-2.2-1.7-10.8-7.1-33.9-12.3c-1.1-0.3-3.7-1-5.2-1.4
					c-0.3,1.2-0.4,2.5-0.6,3.8c0,0,4.3,1,5.1,1.2c23.6,5.2,31.3,10.6,32.6,11.6c-0.4,1.1-0.7,2.2-0.7,3.4c0.1,5,4.2,8.9,9.2,8.8
					c0.4,0,0.8,0,1.2-0.1c0.7,3.6,3.3,6.5,6.7,7.7c1,0.4,2.1,0.6,3.1,0.6c0.7,0,1.3-0.1,2-0.2c1,2.4,3,4.3,5.4,5.1
					c1.1,0.5,2.3,0.7,3.5,0.7c0.9,0,1.9-0.2,2.7-0.5c1.6,3.9,5.4,6.4,9.6,6.4c2.8,0,5.5-1.2,7.4-3.2c2.7,1.5,5.7,2.4,8.8,2.6
					c0.4,0,0.9,0,1.3-0.1c3.6-0.4,5.2-1.9,5.9-2.9c0.1-0.2,0.3-0.4,0.4-0.6c0.9,0.3,1.9,0.5,2.8,0.4c2.1-0.1,4-0.8,5.6-2.1
					c1.7-1.1,2.9-2.9,3.3-4.9v-0.1c0.6,0.1,1.2,0.2,1.9,0.2c2.1,0,4.1-0.7,5.8-1.9c3.7-2.4,4.3-5.5,4.2-7.5c0.6,0.1,1.3,0.2,1.9,0.2
					c1.9-0.1,3.8-0.6,5.5-1.7c2.2-1.4,3.6-3.7,3.8-6.2c0.1-1.7-0.3-3.5-1.2-5c11.8-4.8,23.9-8.7,36.2-11.5c-0.1-1.2-0.3-2.6-0.5-3.8
					c-13,2.9-25.7,7-37.8,12.4c-8.6-7.5-28.6-24.8-34-28.8c-2.1-1.8-4.4-3.1-7-4.1c-1.1-0.4-2.2-0.5-3.4-0.5c-1.5,0-2.9,0.3-4.3,0.7
					c-3.5,1.1-7,3.9-10.3,6.6l-0.2,0.1c-3.1,2.5-6.4,5.1-8.8,5.6c-1.1,0.2-2.2,0.4-3.3,0.4c-2.7,0-5.2-0.8-6.2-1.9
					c-0.2-0.2-0.1-0.5,0.3-1l0.1-0.1l7.6-8.2c5.9-5.9,11.5-11.6,24.4-11.9h0.7c8,0,16.1,3.6,17,3.9c7.2,3.6,15.1,5.5,23.1,5.5
					c8.1,0,16.5-2.1,25.4-6.2c-1-0.8-2-1.7-3.1-2.4c-7,3.2-14.6,5-22.3,5.1c-7.5-0.1-14.9-1.8-21.7-5.1c-0.4-0.2-9.2-4.3-18.4-4.3
					L96.8,20.6z">
     </path>
    </defs>
    <clipPath id="SVGID_8_">
     <use xlink:href="#SVGID_7_" style="overflow:visible;">
     </use>
    </clipPath>
    <g class="st6">
     <rect x="-9.5" y="5.6" class="st1" width="204.3" height="112.2">
     </rect>
    </g>
   </g>
  </g>
 </g>
</svg>