<svg xmlns="http://www.w3.org/2000/svg" width="1200" height="1200" viewBox="0 0 1200 1200" fill="none">
  <path d="M 621.14 607.72 L 621.34 608.03 L 621.53 608.34 L 621.72 608.66 L 621.91 608.99 L 622.09 609.32 L 622.27 609.65 L 622.44 609.99 L 622.61 610.34 L 622.78 610.68 L 622.94 611.04 L 623.09 611.39 L 623.24 611.75 L 623.39 612.12 L 623.53 612.48 L 623.66 612.86 L 623.79 613.23 L 623.92 613.61 L 624.04 613.99 L 624.15 614.38 L 624.26 614.77 L 624.37 615.17 L 624.47 615.56 L 624.56 615.97 L 624.65 616.37 L 624.73 616.78 L 624.81 617.19 L 624.88 617.60 L 624.94 618.02 L 625.00 618.44 L 625.05 618.86 L 625.10 619.29 L 625.14 619.72 L 625.18 620.15 L 625.21 620.58 L 625.23 621.02 L 625.25 621.46 L 625.26 621.90 L 625.26 622.34 L 625.26 622.78 L 625.25 623.23 L 625.24 623.68 L 625.22 624.13 L 625.19 624.59 L 625.15 625.04 L 625.11 625.50 L 625.07 625.96 L 625.01 626.42 L 624.95 626.88 L 624.89 627.34 L 624.81 627.81 L 624.73 628.27 L 624.64 628.74 L 624.55 629.20 L 624.45 629.67 L 624.34 630.14 L 624.23 630.61 L 624.11 631.08 L 623.98 631.55 L 623.84 632.02 L 623.70 632.50 L 623.55 632.97 L 623.39 633.44 L 623.23 633.91 L 623.06 634.38 L 622.88 634.86 L 622.70 635.33 L 622.51 635.80 L 622.31 636.27 L 622.10 636.74 L 621.89 637.21 L 621.67 637.68 L 621.44 638.15 L 621.21 638.62 L 620.97 639.09 L 620.72 639.55 L 620.46 640.02 L 620.20 640.48 L 619.93 640.94 L 619.65 641.40 L 619.37 641.86 L 619.07 642.32 L 618.77 642.78 L 618.47 643.23 L 618.16 643.69 L 617.84 644.14 L 617.51 644.58 L 617.17 645.03 L 616.83 645.47 L 616.48 645.92 L 616.13 646.35 L 615.76 646.79 L 615.39 647.22 L 615.02 647.66 L 614.63 648.08 L 614.24 648.51 L 613.85 648.93 L 613.44 649.35 L 613.03 649.76 L 612.61 650.18 L 612.18 650.59 L 611.75 650.99 L 611.31 651.39 L 610.87 651.79 L 610.42 652.18 L 609.96 652.58 L 609.49 652.96 L 609.02 653.34 L 608.54 653.72 L 608.05 654.09 L 607.56 654.46 L 607.06 654.83 L 606.56 655.19 L 606.04 655.54 L 605.53 655.89 L 605.00 656.24 L 604.47 656.58 L 603.93 656.92 L 603.39 657.25 L 602.84 657.57 L 602.29 657.89 L 601.73 658.21 L 601.16 658.52 L 600.59 658.82 L 600.01 659.12 L 599.42 659.41 L 598.83 659.70 L 598.23 659.98 L 597.63 660.26 L 597.02 660.52 L 596.41 660.79 L 595.79 661.04 L 595.17 661.29 L 594.54 661.54 L 593.91 661.77 L 593.27 662.00 L 592.62 662.23 L 591.97 662.45 L 591.32 662.66 L 590.66 662.86 L 589.99 663.06 L 589.32 663.25 L 588.65 663.43 L 587.97 663.60 L 587.29 663.77 L 586.60 663.93 L 585.91 664.09 L 585.21 664.23 L 584.51 664.37 L 583.80 664.50 L 583.10 664.62 L 582.38 664.74 L 581.67 664.85 L 580.95 664.95 L 580.22 665.04 L 579.49 665.12 L 578.76 665.20 L 578.03 665.27 L 577.29 665.33 L 576.55 665.38 L 575.80 665.42 L 575.05 665.46 L 574.30 665.48 L 573.55 665.50 L 572.79 665.51 L 572.03 665.51 L 571.27 665.50 L 570.51 665.48 L 569.74 665.46 L 568.97 665.42 L 568.20 665.38 L 567.42 665.33 L 566.65 665.27 L 565.87 665.20 L 565.09 665.12 L 564.31 665.03 L 563.53 664.93 L 562.74 664.83 L 561.95 664.71 L 561.17 664.59 L 560.38 664.45 L 559.59 664.31 L 558.80 664.16 L 558.01 664.00 L 557.21 663.83 L 556.42 663.65 L 555.63 663.46 L 554.83 663.26 L 554.04 663.05 L 553.24 662.83 L 552.45 662.60 L 551.65 662.36 L 550.86 662.12 L 550.06 661.86 L 549.27 661.59 L 548.48 661.32 L 547.68 661.03 L 546.89 660.73 L 546.10 660.43 L 545.31 660.11 L 544.52 659.79 L 543.73 659.45 L 542.94 659.11 L 542.15 658.76 L 541.37 658.39 L 540.59 658.02 L 539.81 657.63 L 539.03 657.24 L 538.25 656.84 L 537.47 656.43 L 536.70 656.00 L 535.93 655.57 L 535.16 655.13 L 534.39 654.68 L 533.63 654.21 L 532.87 653.74 L 532.11 653.26 L 531.35 652.77 L 530.60 652.27 L 529.85 651.76 L 529.11 651.24 L 528.36 650.71 L 527.63 650.17 L 526.89 649.62 L 526.16 649.06 L 525.43 648.50 L 524.71 647.92 L 523.99 647.33 L 523.28 646.73 L 522.57 646.13 L 521.86 645.51 L 521.16 644.89 L 520.47 644.25 L 519.77 643.61 L 519.09 642.95 L 518.41 642.29 L 517.73 641.62 L 517.06 640.94 L 516.40 640.25 L 515.74 639.55 L 515.08 638.84 L 514.43 638.12 L 513.79 637.39 L 513.16 636.66 L 512.53 635.91 L 511.90 635.16 L 511.29 634.40 L 510.67 633.63 L 510.07 632.85 L 509.47 632.06 L 508.88 631.26 L 508.30 630.46 L 507.72 629.64 L 507.15 628.82 L 506.59 627.99 L 506.04 627.15 L 505.49 626.31 L 504.95 625.45 L 504.42 624.59 L 503.89 623.72 L 503.38 622.84 L 502.87 621.95 L 502.37 621.05 L 501.88 620.15 L 501.39 619.24 L 500.92 618.32 L 500.45 617.40 L 499.99 616.46 L 499.54 615.52 L 499.10 614.58 L 498.67 613.62 L 498.25 612.66 L 497.84 611.69 L 497.43 610.72 L 497.04 609.73 L 496.65 608.75 L 496.28 607.75 L 495.91 606.75 L 495.56 605.74 L 495.21 604.72 L 494.87 603.70 L 494.55 602.67 L 494.23 601.64 L 493.92 600.60 L 493.63 599.56 L 493.34 598.50 L 493.07 597.45 L 492.80 596.38 L 492.55 595.32 L 492.30 594.24 L 492.07 593.16 L 491.85 592.08 L 491.64 590.99 L 491.44 589.90 L 491.25 588.80 L 491.07 587.70 L 490.90 586.59 L 490.75 585.48 L 490.60 584.36 L 490.47 583.24 L 490.35 582.11 L 490.24 580.99 L 490.14 579.85 L 490.06 578.72 L 489.98 577.58 L 489.92 576.43 L 489.87 575.29 L 489.83 574.13 L 489.80 572.98 L 489.79 571.82 L 489.79 570.67 L 489.79 569.50 L 489.82 568.34 L 489.85 567.17 L 489.90 566.00 L 489.96 564.83 L 490.03 563.65 L 490.11 562.48 L 490.21 561.30 L 490.32 560.12 L 490.44 558.94 L 490.57 557.76 L 490.72 556.57 L 490.88 555.39 L 491.05 554.20 L 491.23 553.01 L 491.43 551.82 L 491.64 550.63 L 491.87 549.45 L 492.10 548.26 L 492.35 547.07 L 492.62 545.88 L 492.89 544.69 L 493.18 543.50 L 493.48 542.31 L 493.80 541.12 L 494.12 539.93 L 494.47 538.74 L 494.82 537.55 L 495.19 536.37 L 495.57 535.18 L 495.96 534.00 L 496.37 532.82 L 496.79 531.64 L 497.22 530.46 L 497.67 529.29 L 498.13 528.11 L 498.60 526.94 L 499.09 525.77 L 499.59 524.60 L 500.10 523.44 L 500.62 522.28 L 501.16 521.12 L 501.72 519.96 L 502.28 518.81 L 502.86 517.66 L 503.45 516.52 L 504.06 515.37 L 504.68 514.24 L 505.31 513.10 L 505.95 511.97 L 506.61 510.85 L 507.28 509.73 L 507.96 508.61 L 508.66 507.50 L 509.37 506.39 L 510.09 505.29 L 510.83 504.19 L 511.58 503.10 L 512.34 502.01 L 513.11 500.93 L 513.90 499.86 L 514.70 498.79 L 515.51 497.73 L 516.33 496.67 L 517.17 495.62 L 518.02 494.58 L 518.89 493.54 L 519.76 492.51 L 520.65 491.49 L 521.55 490.47 L 522.46 489.46 L 523.39 488.46 L 524.32 487.47 L 525.27 486.48 L 526.23 485.50 L 527.21 484.53 L 528.19 483.57 L 529.19 482.62 L 530.20 481.67 L 531.22 480.73 L 532.25 479.81 L 533.29 478.89 L 534.35 477.98 L 535.42 477.07 L 536.50 476.18 L 537.58 475.30 L 538.69 474.42 L 539.80 473.56 L 540.92 472.71 L 542.06 471.86 L 543.20 471.03 L 544.36 470.20 L 545.52 469.39 L 546.70 468.58 L 547.89 467.79 L 549.09 467.01 L 550.30 466.24 L 551.52 465.48 L 552.74 464.73 L 553.98 463.99 L 555.23 463.26 L 556.49 462.55 L 557.76 461.84 L 559.04 461.15 L 560.33 460.47 L 561.63 459.80 L 562.93 459.14 L 564.25 458.50 L 565.57 457.87 L 566.91 457.25 L 568.25 456.64 L 569.60 456.05 L 570.96 455.46 L 572.33 454.90 L 573.71 454.34 L 575.09 453.80 L 576.49 453.27 L 577.89 452.75 L 579.30 452.25 L 580.72 451.76 L 582.14 451.28 L 583.57 450.82 L 585.01 450.37 L 586.46 449.94 L 587.92 449.52 L 589.38 449.11 L 590.85 448.72 L 592.32 448.34 L 593.80 447.98 L 595.29 447.63 L 596.78 447.29 L 598.28 446.97 L 599.79 446.67 L 601.30 446.38 L 602.82 446.10 L 604.34 445.84 L 605.87 445.60 L 607.40 445.37 L 608.94 445.16 L 610.49 444.96 L 612.04 444.77 L 613.59 444.60 L 615.15 444.45 L 616.71 444.32 L 618.27 444.19 L 619.84 444.09 L 621.42 444.00 L 623.00 443.92 L 624.58 443.87 L 626.16 443.83 L 627.75 443.80 L 629.34 443.79 L 630.93 443.80 L 632.53 443.82 L 634.13 443.86 L 635.73 443.91 L 637.33 443.99 L 638.94 444.08 L 640.55 444.18 L 642.16 444.30 L 643.77 444.44 L 645.38 444.60 L 646.99 444.77 L 648.61 444.96 L 650.22 445.16 L 651.84 445.38 L 653.45 445.62 L 655.07 445.88 L 656.69 446.15 L 658.30 446.44 L 659.92 446.74 L 661.54 447.07 L 663.15 447.41 L 664.77 447.77 L 666.38 448.14 L 667.99 448.53 L 669.60 448.94 L 671.21 449.37 L 672.82 449.81 L 674.43 450.27 L 676.03 450.74 L 677.63 451.24 L 679.23 451.75 L 680.83 452.28 L 682.43 452.82 L 684.02 453.38 L 685.61 453.96 L 687.19 454.56 L 688.77 455.17 L 690.35 455.80 L 691.93 456.45 L 693.50 457.12 L 695.06 457.80 L 696.62 458.50 L 698.18 459.21 L 699.73 459.95 L 701.28 460.70 L 702.82 461.46 L 704.36 462.25 L 705.89 463.05 L 707.42 463.86 L 708.94 464.70 L 710.45 465.55 L 711.96 466.42 L 713.46 467.30 L 714.96 468.20 L 716.45 469.12 L 717.93 470.05 L 719.40 471.00 L 720.87 471.97 L 722.33 472.95 L 723.78 473.95 L 725.22 474.97 L 726.66 476.00 L 728.09 477.05 L 729.51 478.11 L 730.92 479.19 L 732.32 480.29 L 733.71 481.40 L 735.10 482.53 L 736.47 483.68 L 737.83 484.84 L 739.19 486.01 L 740.54 487.20 L 741.87 488.41 L 743.20 489.63 L 744.51 490.87 L 745.82 492.12 L 747.11 493.39 L 748.39 494.67 L 749.67 495.97 L 750.93 497.28 L 752.18 498.60 L 753.42 499.95 L 754.64 501.30 L 755.86 502.67 L 757.06 504.06 L 758.25 505.46 L 759.43 506.87 L 760.59 508.30 L 761.75 509.74 L 762.89 511.20 L 764.01 512.66 L 765.13 514.15 L 766.23 515.64 L 767.31 517.15 L 768.39 518.67 L 769.45 520.21 L 770.49 521.76 L 771.52 523.32 L 772.54 524.90 L 773.54 526.48 L 774.53 528.08 L 775.51 529.69 L 776.47 531.32 L 777.41 532.95 L 778.34 534.60 L 779.25 536.26 L 780.15 537.93 L 781.03 539.62 L 781.90 541.31 L 782.75 543.02 L 783.58 544.73 L 784.40 546.46 L 785.21 548.20 L 785.99 549.95 L 786.76 551.71 L 787.51 553.48 L 788.25 555.26 L 788.97 557.05 L 789.67 558.85 L 790.36 560.66 L 791.03 562.47 L 791.68 564.30 L 792.31 566.14 L 792.92 567.99 L 793.52 569.84 L 794.10 571.71 L 794.66 573.58 L 795.21 575.46 L 795.73 577.35 L 796.24 579.24 L 796.73 581.15 L 797.20 583.06 L 797.65 584.98 L 798.08 586.91 L 798.50 588.84 L 798.89 590.78 L 799.27 592.73 L 799.63 594.68 L 799.96 596.64 L 800.28 598.61 L 800.58 600.58 L 800.86 602.56 L 801.12 604.55 L 801.36 606.54 L 801.58 608.53 L 801.79 610.53 L 801.97 612.53 L 802.13 614.54 L 802.27 616.56 L 802.39 618.57 L 802.49 620.59 L 802.57 622.62 L 802.63 624.65 L 802.67 626.68 L 802.69 628.71 L 802.69 630.75 L 802.67 632.79 L 802.63 634.84 L 802.57 636.88 L 802.49 638.93 L 802.38 640.98 L 802.26 643.03 L 802.11 645.09 L 801.95 647.14 L 801.76 649.20 L 801.55 651.25 L 801.32 653.31 L 801.07 655.37 L 800.80 657.43 L 800.51 659.48 L 800.20 661.54 L 799.86 663.60 L 799.51 665.66 L 799.13 667.71 L 798.73 669.77 L 798.31 671.82 L 797.88 673.87 L 797.41 675.92 L 796.93 677.97 L 796.43 680.02 L 795.90 682.06 L 795.36 684.10 L 794.79 686.14 L 794.20 688.18 L 793.59 690.21 L 792.96 692.24 L 792.31 694.26 L 791.64 696.28 L 790.94 698.30 L 790.22 700.31 L 789.49 702.32 L 788.73 704.32 L 787.95 706.32 L 787.15 708.32 L 786.33 710.30 L 785.49 712.29 L 784.62 714.26 L 783.74 716.23 L 782.83 718.19 L 781.91 720.15 L 780.96 722.10 L 779.99 724.04 L 779.01 725.98 L 778.00 727.91 L 776.97 729.83 L 775.92 731.74 L 774.85 733.65 L 773.76 735.54 L 772.64 737.43 L 771.51 739.31 L 770.36 741.18 L 769.19 743.04 L 767.99 744.89 L 766.78 746.73 L 765.55 748.57 L 764.30 750.39 L 763.02 752.20 L 761.73 754.00 L 760.42 755.79 L 759.09 757.57 L 757.74 759.34 L 756.37 761.10 L 754.98 762.84 L 753.57 764.58 L 752.14 766.30 L 750.69 768.01 L 749.23 769.70 L 747.74 771.39 L 746.24 773.06 L 744.71 774.72 L 743.17 776.36 L 741.61 778.00 L 740.04 779.61 L 738.44 781.22 L 736.83 782.81 L 735.20 784.38 L 733.55 785.95 L 731.88 787.49 L 730.20 789.03 L 728.49 790.54 L 726.77 792.05 L 725.04 793.53 L 723.28 795.00 L 721.51 796.46 L 719.73 797.90 L 717.92 799.32 L 716.10 800.73 L 714.27 802.12 L 712.41 803.49 L 710.55 804.85 L 708.66 806.19 L 706.76 807.51 L 704.85 808.82 L 702.92 810.10 L 700.97 811.37 L 699.01 812.62 L 697.03 813.86 L 695.04 815.07 L 693.04 816.27 L 691.02 817.45 L 688.98 818.61 L 686.94 819.75 L 684.88 820.87 L 682.80 821.97 L 680.71 823.05 L 678.61 824.11 L 676.49 825.15 L 674.37 826.18 L 672.23 827.18 L 670.07 828.16 L 667.91 829.12 L 665.73 830.07 L 663.54 830.99 L 661.34 831.89 L 659.13 832.76 L 656.90 833.62 L 654.67 834.46 L 652.42 835.27 L 650.16 836.07 L 647.89 836.84 L 645.62 837.59 L 643.33 838.32 L 641.03 839.02 L 638.72 839.71 L 636.40 840.37 L 634.08 841.01 L 631.74 841.62 L 629.40 842.22 L 627.04 842.79 L 624.68 843.34 L 622.31 843.86 L 619.94 844.37 L 617.55 844.84 L 615.16 845.30 L 612.76 845.73 L 610.35 846.14 L 607.94 846.53 L 605.52 846.89 L 603.09 847.23 L 600.66 847.54 L 598.22 847.83 L 595.77 848.09 L 593.32 848.34 L 590.87 848.55 L 588.41 848.75 L 585.94 848.92 L 583.47 849.06 L 581.00 849.18 L 578.52 849.27 L 576.04 849.34 L 573.56 849.39 L 571.07 849.41 L 568.58 849.41 L 566.08 849.38 L 563.59 849.33 L 561.09 849.25 L 558.59 849.14 L 556.09 849.01 L 553.58 848.86 L 551.08 848.68 L 548.57 848.48 L 546.07 848.25 L 543.56 847.99 L 541.05 847.71 L 538.55 847.41 L 536.04 847.07 L 533.54 846.72 L 531.03 846.34 L 528.53 845.93 L 526.02 845.50 L 523.52 845.04 L 521.02 844.55 L 518.53 844.05 L 516.03 843.51 L 513.54 842.95 L 511.05 842.36 L 508.56 841.75 L 506.08 841.12 L 503.60 840.45 L 501.13 839.77 L 498.66 839.05 L 496.19 838.32 L 493.73 837.55 L 491.27 836.76 L 488.82 835.95 L 486.37 835.11 L 483.93 834.24 L 481.50 833.35 L 479.07 832.44 L 476.65 831.50 L 474.24 830.53 L 471.83 829.54 L 469.43 828.52 L 467.04 827.48 L 464.65 826.41 L 462.28 825.32 L 459.91 824.21 L 457.55 823.06 L 455.20 821.90 L 452.86 820.71 L 450.53 819.49 L 448.20 818.25 L 445.89 816.99 L 443.59 815.70 L 441.30 814.39 L 439.02 813.05 L 436.75 811.69 L 434.49 810.30 L 432.24 808.90 L 430.01 807.46 L 427.78 806.01 L 425.57 804.53 L 423.37 803.02 L 421.19 801.49 L 419.01 799.94 L 416.86 798.37 L 414.71 796.77 L 412.58 795.15 L 410.46 793.51 L 408.35 791.84 L 406.26 790.15 L 404.19 788.44 L 402.13 786.71 L 400.08 784.95 L 398.05 783.17 L 396.04 781.37 L 394.04 779.55 L 392.06 777.70 L 390.09 775.84 L 388.14 773.95 L 386.21 772.04 L 384.30 770.11 L 382.40 768.16 L 380.52 766.19 L 378.66 764.19 L 376.81 762.18 L 374.98 760.15 L 373.18 758.09 L 371.39 756.02 L 369.62 753.93 L 367.87 751.81 L 366.13 749.68 L 364.42 747.53 L 362.73 745.35 L 361.06 743.16 L 359.40 740.95 L 357.77 738.72 L 356.16 736.48 L 354.57 734.21 L 353.00 731.93 L 351.45 729.63 L 349.92 727.31 L 348.42 724.97 L 346.93 722.62 L 345.47 720.25 L 344.03 717.86 L 342.62 715.45 L 341.22 713.03 L 339.85 710.60 L 338.50 708.14 L 337.17 705.67 L 335.87 703.19 L 334.59 700.69 L 333.34 698.17 L 332.10 695.64 L 330.90 693.10 L 329.71 690.54 L 328.55 687.96 L 327.42 685.37 L 326.31 682.77 L 325.23 680.16 L 324.16 677.53 L 323.13 674.89 L 322.12 672.23 L 321.14 669.56 L 320.18 666.88 L 319.25 664.19" stroke="#E8D8D6" stroke-width="34" stroke-linecap="round" stroke-linejoin="round"/>
</svg>
